<svg width="65" height="65" viewBox="0 0 65 65" fill="none" xmlns="http://www.w3.org/2000/svg">
<g clip-path="url(#clip0_12_885)">
<path fill-rule="evenodd" clip-rule="evenodd" d="M32.5 45C39.4036 45 45 39.4036 45 32.5C45 25.5964 39.4036 20 32.5 20C25.5964 20 20 25.5964 20 32.5C20 39.4036 25.5964 45 32.5 45ZM32.5 37C34.9853 37 37 34.9853 37 32.5C37 30.0147 34.9853 28 32.5 28C30.0147 28 28 30.0147 28 32.5C28 34.9853 30.0147 37 32.5 37Z" fill="url(#paint0_linear_12_885)"/>
</g>
<defs>
<linearGradient id="paint0_linear_12_885" x1="32.5" y1="20" x2="32.5" y2="45" gradientUnits="userSpaceOnUse">
<stop stop-color="#083A4A"/>
<stop offset="1" stop-color="#083A4A" stop-opacity="0.589708"/>
</linearGradient>
<clipPath id="clip0_12_885">
<rect width="65" height="65" fill="white"/>
</clipPath>
</defs>
</svg>
